<svg xmlns="http://www.w3.org/2000/svg" viewBox="0 0 100 100" width="100" height="100">
  <rect width="100" height="100" rx="22" fill="#282d33"/>
  <path d="M50 16c-9 0-16 4-19 11-2 4-2 9 0 13 3 6 9 9 17 12 6 2 9 4 10 7 1 2 1 5-1 7-2 3-6 4-11 4-6 0-11-2-16-6l-2 12c6 4 12 6 19 6 9 0 16-3 20-9 2-4 3-9 1-13-3-6-9-9-17-12-6-2-9-4-10-6-1-2-1-4 0-6 2-3 6-4 10-4 5 0 10 2 14 5l2-12c-5-3-11-5-17-5z" fill="#98c8b8"/>
  <path d="M20 74c8 8 40 8 60 0" stroke="#7fa6a9" stroke-width="4" fill="none" stroke-linecap="round" opacity="0.8"/>
</svg>
